<svg width="23" height="24" viewBox="0 0 23 24" fill="none" xmlns="http://www.w3.org/2000/svg">
<g id="icon/action/shopping_cart_24px">
<path id="icon/action/shopping_cart_24px_2" fill-rule="evenodd" clip-rule="evenodd" d="M17.5339 11.97C17.2081 12.59 16.5756 13 15.8569 13H8.71728L7.66312 15H19.1631V17H7.66312C6.20645 17 5.28645 15.37 5.98603 14.03L7.27978 11.59L3.82978 4H1.91312V2H5.04687L5.9477 4H20.131C20.8594 4 21.3194 4.82 20.9648 5.48L17.5339 11.97ZM18.5019 6H6.85812L9.12937 11H15.8569L18.5019 6ZM7.66312 18C6.60895 18 5.75603 18.9 5.75603 20C5.75603 21.1 6.60895 22 7.66312 22C8.71728 22 9.57978 21.1 9.57978 20C9.57978 18.9 8.71728 18 7.66312 18ZM15.3394 20C15.3394 18.9 16.1923 18 17.2465 18C18.3006 18 19.1631 18.9 19.1631 20C19.1631 21.1 18.3006 22 17.2465 22C16.1923 22 15.3394 21.1 15.3394 20Z" fill="#1F201E"/>
</g>
</svg>
